<svg width="64" height="64" viewBox="0 0 64 64" fill="none" xmlns="http://www.w3.org/2000/svg">
<path fill-rule="evenodd" clip-rule="evenodd" d="M21 36C21 37.3525 21.8965 38.4979 23.1287 38.8715C23.5022 40.1024 24.646 40.9999 26 40.9999C27.306 40.9999 28.4167 40.1644 28.8288 39.0001H34.1712C34.5833 40.1644 35.694 40.9999 37 40.9999C38.306 40.9999 39.4167 40.1644 39.8288 39.0001H42C42.2635 39.0001 42.521 38.8951 42.707 38.7051C42.8935 38.5201 43 38.2651 43 38.0001V31C43 30.735 42.8935 30.48 42.707 30.295L40.707 28.295C40.521 28.105 40.2635 28 40 28H36V27C35.9995 25.345 34.657 24 33 24H24C22.3425 24 21 25.345 21 27V36ZM23 36C23 36.28 23.1105 36.5251 23.293 36.7051C23.7763 35.6969 24.8066 35 26 35C27.3061 35 28.4168 35.8356 28.8289 37H34V27C33.9995 26.72 33.8895 26.475 33.707 26.295C33.523 26.11 33.2795 26 33 26H24C23.72 26 23.4765 26.11 23.293 26.295C23.1105 26.475 23 26.72 23 27V36ZM26.707 37.295C26.8895 37.4749 26.9995 37.72 27 38C26.9995 38.28 26.8895 38.525 26.707 38.705C26.523 38.89 26.2795 39 26 39C25.72 39 25.4765 38.89 25.293 38.705C25.1105 38.525 25 38.28 25 38C25 37.72 25.1105 37.4749 25.293 37.295C25.4765 37.11 25.72 37 26 37C26.2795 37 26.523 37.11 26.707 37.295ZM36 30V35.1709C36.3128 35.0602 36.6493 35 37 35C38.3061 35 39.4168 35.8356 39.8289 37H41V31.829C41 31.5639 40.8947 31.3097 40.7074 31.1221L39.8789 30.2931C39.6914 30.1055 39.4369 30 39.1716 30H36ZM36 37.9981C36.001 37.7189 36.1109 37.4746 36.293 37.295C36.477 37.11 36.7205 37 37 37C37.2795 37 37.523 37.11 37.707 37.295C37.8895 37.4749 37.9995 37.72 38 38C37.9995 38.28 37.8895 38.525 37.707 38.705C37.523 38.89 37.2795 39 37 39C36.7205 39 36.477 38.89 36.293 38.705C36.1108 38.5253 36.0009 38.2808 36 38.0015L36 37.9981Z" fill="#323942"/>
<rect x="1" y="1" width="62" height="62" rx="31" stroke="#A7E92F" stroke-width="2"/>
</svg>
