<svg width="64" height="64" viewBox="0 0 64 64" fill="none" xmlns="http://www.w3.org/2000/svg">
<path d="M36.3348 23.6679C36.3348 24.9246 35.316 25.9433 34.0593 25.9433C32.8027 25.9433 31.7839 24.9246 31.7839 23.6679C31.7839 22.4112 32.8027 21.3925 34.0593 21.3925C35.316 21.3925 36.3348 22.4112 36.3348 23.6679Z" fill="#323942"/>
<path fill-rule="evenodd" clip-rule="evenodd" d="M34.0593 25.11C34.8558 25.11 35.5014 24.4644 35.5014 23.6679C35.5014 22.8715 34.8558 22.2258 34.0593 22.2258C33.2629 22.2258 32.6172 22.8715 32.6172 23.6679C32.6172 24.4644 33.2629 25.11 34.0593 25.11ZM34.0593 25.9433C35.316 25.9433 36.3348 24.9246 36.3348 23.6679C36.3348 22.4112 35.316 21.3925 34.0593 21.3925C32.8027 21.3925 31.7839 22.4112 31.7839 23.6679C31.7839 24.9246 32.8027 25.9433 34.0593 25.9433Z" fill="#323942"/>
<path fill-rule="evenodd" clip-rule="evenodd" d="M33.5291 26.8173C34.07 26.9291 34.4177 27.4582 34.3058 27.9991L34.1329 28.835C34.2285 29.0387 34.4317 29.3448 34.8026 29.5717C35.2678 29.8564 36.1622 30.1166 37.8005 29.6159C38.3286 29.4545 38.8877 29.7518 39.0491 30.2799C39.2105 30.8081 38.9132 31.3671 38.385 31.5286C36.3442 32.1523 34.8279 31.9319 33.7587 31.2777C33.7227 31.2556 33.6874 31.2332 33.6528 31.2105L33.4343 32.2947L35.7905 35.6648C35.8453 35.7431 35.8885 35.8289 35.9189 35.9195L37.081 39.3803L37.6913 39.1725C38.2141 38.9944 38.7822 39.2739 38.9603 39.7967C39.1383 40.3195 38.8588 40.8877 38.336 41.0657L36.7751 41.5973C36.5234 41.683 36.2478 41.6649 36.0094 41.547C35.771 41.4291 35.5894 41.2211 35.5048 40.969L34.0688 36.6927L32.5309 34.493L31.167 37.3375C31.0736 37.5323 30.9196 37.6916 30.7281 37.7916L27.5056 39.474L27.8836 40.1772C28.1451 40.6636 27.9627 41.27 27.4763 41.5315C26.9898 41.793 26.3835 41.6106 26.122 41.1242L25.2647 39.5295C25.1382 39.294 25.1111 39.0177 25.1897 38.7622C25.2682 38.5067 25.4458 38.2932 25.6827 38.1695L29.5075 36.1727L31.4138 32.197L32.1186 28.6997L32.3473 27.594C32.4592 27.0531 32.9883 26.7054 33.5291 26.8173Z" fill="#323942"/>
<path d="M25.3306 25.5907C25.4348 25.1424 25.8827 24.8635 26.331 24.9677L30.6177 25.9645C31.066 26.0687 31.3449 26.5166 31.2406 26.9649L30.0233 32.2001C29.9191 32.6484 29.4712 32.9273 29.0229 32.8231L24.7362 31.8263C24.2879 31.7221 24.009 31.2742 24.1133 30.8259L25.3306 25.5907Z" fill="#323942"/>
<path fill-rule="evenodd" clip-rule="evenodd" d="M30.429 26.7762L26.1423 25.7794L24.9249 31.0146L29.2117 32.0114L30.429 26.7762ZM26.331 24.9677C25.8827 24.8635 25.4348 25.1424 25.3306 25.5907L24.1133 30.8259C24.009 31.2742 24.2879 31.7221 24.7362 31.8263L29.0229 32.8231C29.4712 32.9273 29.9191 32.6484 30.0233 32.2001L31.2406 26.9649C31.3449 26.5166 31.066 26.0687 30.6177 25.9645L26.331 24.9677Z" fill="#323942"/>
<rect x="1" y="1" width="62" height="62" rx="31" stroke="#A7E92F" stroke-width="2"/>
</svg>
