<svg width="64" height="64" viewBox="0 0 64 64" fill="none" xmlns="http://www.w3.org/2000/svg">
<path d="M41 22H32C31.45 22 31 22.45 31 23V26H23C22.45 26 22 26.45 22 27V41C22 41.55 22.45 42 23 42H41C41.55 42 42 41.55 42 41V23C42 22.45 41.55 22 41 22ZM24 28H31V40H24V28ZM40 40H33V24H40V40Z" fill="white"/>
<path d="M38 26H35V28H38V26Z" fill="white"/>
<path d="M38 30H35V32H38V30Z" fill="white"/>
<path d="M38 34H35V36H38V34Z" fill="white"/>
<path d="M29 30H26V32H29V30Z" fill="white"/>
<path d="M29 34H26V36H29V34Z" fill="white"/>
<rect x="1" y="1" width="62" height="62" rx="31" stroke="#A7E92F" stroke-width="2"/>
</svg>
