<svg width="65" height="64" viewBox="0 0 65 64" fill="none" xmlns="http://www.w3.org/2000/svg">
<path fill-rule="evenodd" clip-rule="evenodd" d="M34.1612 30.2319C33.4216 30.7258 32.5521 30.9894 31.6626 30.9894C30.4706 30.9867 29.3283 30.5123 28.4854 29.67C27.6426 28.8277 27.1679 27.6859 27.1653 26.4947C27.1653 25.6057 27.429 24.7367 27.9232 23.9976C28.4174 23.2584 29.1198 22.6823 29.9416 22.3421C30.7633 22.002 31.6676 21.9129 32.54 22.0864C33.4124 22.2598 34.2137 22.6879 34.8427 23.3165C35.4716 23.9451 35.9 24.7459 36.0735 25.6178C36.247 26.4897 36.158 27.3934 35.8176 28.2147C35.4772 29.036 34.9007 29.738 34.1612 30.2319ZM33.0507 24.4185C32.6398 24.1441 32.1567 23.9976 31.6626 23.9976C30.9999 23.9976 30.3644 24.2607 29.8959 24.729C29.4273 25.1973 29.1641 25.8324 29.1641 26.4947C29.1641 26.9886 29.3106 27.4713 29.5852 27.882C29.8597 28.2926 30.2499 28.6127 30.7065 28.8017C31.163 28.9907 31.6654 29.0401 32.15 28.9438C32.6347 28.8474 33.0799 28.6096 33.4293 28.2604C33.7787 27.9112 34.0167 27.4662 34.1131 26.9818C34.2095 26.4975 34.16 25.9954 33.9709 25.5391C33.7818 25.0828 33.4616 24.6929 33.0507 24.4185Z" fill="white"/>
<path d="M26.7158 36.0337C28.0278 34.7225 29.8072 33.9858 31.6626 33.9858C31.9276 33.9858 32.1818 33.8806 32.3693 33.6933C32.5567 33.506 32.662 33.2519 32.662 32.987C32.662 32.7221 32.5567 32.4681 32.3693 32.2807C32.1818 32.0934 31.9276 31.9882 31.6626 31.9882C29.2771 31.9882 26.9893 32.9353 25.3024 34.6211C23.6156 36.307 22.668 38.5934 22.668 40.9776C22.668 41.2425 22.7733 41.4965 22.9607 41.6839C23.1481 41.8712 23.4023 41.9764 23.6674 41.9764C23.9324 41.9764 24.1866 41.8712 24.3741 41.6839C24.5615 41.4965 24.6668 41.2425 24.6668 40.9776C24.6668 39.1233 25.4038 37.3449 26.7158 36.0337Z" fill="white"/>
<path fill-rule="evenodd" clip-rule="evenodd" d="M42.2994 35.2785C42.4424 35.3985 42.549 35.5562 42.6069 35.7338C42.6742 35.9168 42.6864 36.1156 42.642 36.3055C42.5976 36.4954 42.4986 36.6682 42.3571 36.8025L40.5681 38.4805L40.9779 40.8177C41.0146 41.004 40.9975 41.197 40.9285 41.3739C40.8594 41.5508 40.7414 41.7043 40.5881 41.8166C40.4443 41.9183 40.276 41.9802 40.1005 41.996C39.925 42.0117 39.7484 41.9809 39.5887 41.9065L37.44 40.7978L35.2913 41.8865C35.1482 41.9569 34.9911 41.9945 34.8316 41.9964C34.6188 41.9942 34.4122 41.9242 34.2419 41.7966C34.0869 41.6856 33.9668 41.5326 33.896 41.3556C33.8252 41.1786 33.8065 40.985 33.8422 40.7978L34.2519 38.4306L32.5229 36.7326C32.3945 36.6045 32.3034 36.4438 32.2593 36.2678C32.2153 36.0919 32.2201 35.9072 32.2731 35.7338C32.331 35.5562 32.4376 35.3985 32.5807 35.2785C32.7238 35.1584 32.8977 35.0808 33.0826 35.0546L35.4712 34.7249L36.5405 32.5375C36.6244 32.3713 36.753 32.2318 36.9119 32.1347C37.0708 32.0376 37.2538 31.9869 37.44 31.9882C37.6273 31.9878 37.811 32.04 37.97 32.1389C38.129 32.2378 38.2571 32.3794 38.3395 32.5475L39.3988 34.7249L41.7974 35.0546C41.9824 35.0808 42.1563 35.1584 42.2994 35.2785ZM38.5892 37.8116C38.6379 37.6567 38.7237 37.5161 38.8392 37.4018L39.5088 36.7526L38.5993 36.6327C38.4364 36.6092 38.2818 36.5458 38.1493 36.4482C38.0168 36.3507 37.9105 36.2219 37.8398 36.0734L37.44 35.2543L37.0303 36.0833C36.9583 36.23 36.8514 36.3568 36.7189 36.4526C36.5865 36.5483 36.4326 36.6102 36.2707 36.6327L35.3712 36.7526L36.0309 37.3918C36.1463 37.5061 36.2321 37.6468 36.2809 37.8017C36.3296 37.9566 36.3399 38.121 36.3107 38.2808L36.1608 39.1697L36.9803 38.7502C37.1223 38.6766 37.28 38.6382 37.44 38.6382C37.6 38.6382 37.7577 38.6766 37.8997 38.7502L38.7092 39.1697L38.5593 38.2907C38.5302 38.131 38.5404 37.9665 38.5892 37.8116Z" fill="white"/>
<rect x="1.66797" y="1" width="62" height="62" rx="31" stroke="#A7E92F" stroke-width="2"/>
</svg>
