<svg width="65" height="64" viewBox="0 0 65 64" fill="none" xmlns="http://www.w3.org/2000/svg">
<path fill-rule="evenodd" clip-rule="evenodd" d="M21.332 36C21.332 37.3525 22.2285 38.4979 23.4607 38.8715C23.8342 40.1024 24.978 40.9999 26.332 40.9999C27.6381 40.9999 28.7487 40.1644 29.1608 39.0001H34.5032C34.9154 40.1644 36.026 40.9999 37.332 40.9999C38.638 40.9999 39.7487 40.1644 40.1608 39.0001H42.332C42.5955 39.0001 42.853 38.8951 43.039 38.7051C43.2255 38.5201 43.332 38.2651 43.332 38.0001V31C43.332 30.735 43.2255 30.48 43.039 30.295L41.039 28.295C40.853 28.105 40.5955 28 40.332 28H36.332V27C36.3315 25.345 34.989 24 33.332 24H24.332C22.6745 24 21.332 25.345 21.332 27V36ZM23.332 36C23.332 36.28 23.4425 36.5251 23.625 36.7051C24.1083 35.6969 25.1387 35 26.332 35C27.6381 35 28.7488 35.8356 29.1609 37H34.332V27C34.3315 26.72 34.2215 26.475 34.039 26.295C33.855 26.11 33.6115 26 33.332 26H24.332C24.052 26 23.8085 26.11 23.625 26.295C23.4425 26.475 23.332 26.72 23.332 27V36ZM27.039 37.295C27.2215 37.4749 27.3315 37.72 27.332 38C27.3315 38.28 27.2215 38.525 27.039 38.705C26.855 38.89 26.6115 39 26.332 39C26.052 39 25.8085 38.89 25.625 38.705C25.4425 38.525 25.332 38.28 25.332 38C25.332 37.72 25.4425 37.4749 25.625 37.295C25.8085 37.11 26.052 37 26.332 37C26.6115 37 26.855 37.11 27.039 37.295ZM36.332 30V35.1709C36.6448 35.0602 36.9814 35 37.332 35C38.6381 35 39.7488 35.8356 40.1609 37H41.332V31.829C41.332 31.5639 41.2268 31.3097 41.0394 31.1221L40.211 30.2931C40.0234 30.1055 39.7689 30 39.5036 30H36.332ZM36.332 37.9981C36.333 37.7189 36.4429 37.4746 36.625 37.295C36.809 37.11 37.0525 37 37.332 37C37.6115 37 37.855 37.11 38.039 37.295C38.2215 37.4749 38.3315 37.72 38.332 38C38.3315 38.28 38.2215 38.525 38.039 38.705C37.855 38.89 37.6115 39 37.332 39C37.0525 39 36.809 38.89 36.625 38.705C36.4429 38.5253 36.3329 38.2808 36.332 38.0015L36.332 37.9981Z" fill="white"/>
<rect x="1.33203" y="1" width="62" height="62" rx="31" stroke="#A7E92F" stroke-width="2"/>
</svg>
